<svg width="186" height="22" viewBox="0 0 186 22" fill="none" xmlns="http://www.w3.org/2000/svg">
<path d="M41.2901 14.6214H33.8578C32.3034 14.6214 31.089 14.4534 30.2146 14.1593C29.3402 13.8651 28.7087 13.3189 28.3201 12.6047C27.9315 11.8484 27.7858 10.84 27.7858 9.53754V5.46203C27.7858 4.07552 28.0286 2.98311 28.4173 2.22683C28.8059 1.47055 29.4374 0.966363 30.3603 0.672254C31.2833 0.378145 32.5949 0.252099 34.2465 0.252099H40.8043C42.213 0.252099 43.4275 0.378145 44.3504 0.672254C45.2734 0.966363 46.002 1.47055 46.5364 2.18481C47.0221 2.89908 47.3136 3.90745 47.3136 5.20994H43.1846C43.1846 4.45366 42.9417 3.90745 42.5045 3.61334C42.0187 3.27722 41.2415 3.15117 40.1728 3.15117H35.0237C34.0522 3.15117 33.3721 3.19319 32.9349 3.31924C32.4977 3.44528 32.2062 3.65536 32.0119 3.99148C31.8176 4.32761 31.7691 4.91583 31.7691 5.67211V9.24343C31.7691 9.9577 31.8662 10.5039 32.1091 10.882C32.3034 11.2602 32.6434 11.5123 33.0806 11.6383C33.5178 11.7644 34.1493 11.8484 34.9751 11.8484H40.0757C40.8529 11.8484 41.4844 11.8064 41.9216 11.6803C42.3588 11.5543 42.6502 11.3442 42.8931 11.0501C43.0874 10.756 43.1846 10.2938 43.1846 9.7056H47.3136C47.3136 11.0501 47.1193 12.0585 46.8278 12.7727C46.5364 13.487 45.9049 13.9912 45.0791 14.2853C44.2047 14.4954 42.9417 14.6214 41.2901 14.6214ZM51.394 14.6634H46.7307L55.5716 0.252099H61.498L70.2903 14.6634H65.5784L63.441 11.0501H53.58L51.394 14.6634ZM55.1344 8.27707H61.7894L58.6319 2.9411H58.4376L55.1344 8.27707ZM75.2937 3.10916V7.52079H83.6003C84.4262 7.52079 85.0091 7.35273 85.3491 7.01661C85.6891 6.68048 85.8349 6.09226 85.8834 5.33598C85.8834 4.53769 85.7377 3.99148 85.3977 3.65536C85.0576 3.31924 84.4747 3.15117 83.6003 3.15117H75.2937V3.10916ZM90.2068 14.6634H86.2235V12.4366C86.2235 11.7223 85.9806 11.2182 85.4948 10.882C85.0091 10.5459 84.1833 10.4199 83.066 10.4199H75.3423V14.7055H71.359V0.210083H84.0375C84.9605 0.210083 85.7863 0.294114 86.5149 0.420161C87.195 0.588223 87.8265 0.840317 88.3609 1.21846C88.8466 1.5966 89.2838 2.10078 89.5753 2.77303C89.8667 3.44528 90.0125 4.28559 90.0125 5.29397C90.0125 6.30234 89.8182 7.05862 89.381 7.64684C88.9438 8.19304 88.3609 8.69723 87.5836 9.07537C88.3123 9.32746 88.8466 9.49552 89.1381 9.62157C89.4295 9.74762 89.721 9.99971 89.9639 10.2938C90.2068 10.6299 90.3525 11.0501 90.3525 11.6383V14.6634H90.2068ZM98.3677 11.7644H105.557C106.529 11.7644 107.306 11.6803 107.792 11.5123C108.326 11.3442 108.666 11.0921 108.86 10.756C109.055 10.4199 109.152 9.91568 109.152 9.32746V5.54606C109.152 4.66373 108.909 4.07552 108.374 3.65536C107.889 3.27722 106.917 3.06714 105.508 3.06714H98.3191V11.7644H98.3677ZM94.3844 0.210083H107.257C108.326 0.210083 109.2 0.294114 109.929 0.504192C110.658 0.71427 111.289 1.00838 111.726 1.42853C112.212 1.84869 112.552 2.39489 112.795 3.02513C113.038 3.69738 113.135 4.49567 113.184 5.46203V9.28545C113.184 10.5459 112.989 11.5543 112.601 12.3526C112.212 13.1089 111.58 13.6971 110.706 14.0752C109.832 14.4534 108.714 14.6214 107.257 14.6214H94.3358V0.210083H94.3844ZM120.421 11.7644H127.611C128.582 11.7644 129.36 11.6803 129.845 11.5123C130.38 11.3442 130.72 11.0921 130.914 10.756C131.108 10.4199 131.205 9.91568 131.205 9.32746V5.54606C131.205 4.66373 130.963 4.07552 130.428 3.65536C129.942 3.27722 128.971 3.06714 127.562 3.06714H120.373V11.7644H120.421ZM116.438 0.210083H129.311C130.331 0.210083 131.205 0.294114 131.983 0.504192C132.711 0.71427 133.343 1.00838 133.78 1.42853C134.266 1.84869 134.606 2.39489 134.849 3.02513C135.092 3.69738 135.189 4.49567 135.237 5.46203V9.28545C135.237 10.5459 135.043 11.5543 134.654 12.3526C134.266 13.1089 133.634 13.6971 132.76 14.0752C131.886 14.4534 130.768 14.6214 129.311 14.6214H116.438V0.210083ZM138.152 14.6634V0.210083H155.202V2.9411H142.184V6.09226H154.814V8.6132H142.184V11.9324H155.202V14.6634H138.152ZM162.877 0.210083H157.485L165.161 7.22668L156.562 14.6634H162.392L168.318 8.99134L174.244 14.6634H180.122L171.476 7.22668L179.151 0.210083H173.759L168.318 5.46203L162.877 0.210083Z" fill="black"/>
<path d="M28.5632 19.159C28.5632 19.2851 28.6117 19.4111 28.6117 19.4952C28.6603 19.5792 28.7089 19.6212 28.806 19.6632C28.9032 19.7052 29.0489 19.7052 29.2432 19.7052H30.4091C30.6034 19.7052 30.7491 19.7052 30.8463 19.6632C30.9434 19.6212 30.992 19.5792 31.0406 19.4952C31.0891 19.4111 31.0891 19.3271 31.0891 19.159V18.3607C31.0891 18.1927 31.0406 18.1087 31.0406 18.0246C30.992 17.9406 30.9434 17.8986 30.7977 17.8566C30.7005 17.8145 30.5548 17.8145 30.3605 17.8145H29.2432C29.0489 17.8145 28.9032 17.8145 28.806 17.8566C28.7089 17.8986 28.6603 17.9406 28.6117 18.0246C28.5632 18.1087 28.5632 18.2347 28.5632 18.4028V19.159ZM31.9635 19.2431C31.9635 19.4532 31.9635 19.6212 31.9149 19.7473C31.8664 19.8733 31.7692 19.9994 31.6721 20.0834C31.5749 20.1674 31.4292 20.2514 31.2834 20.2935C31.0891 20.3355 30.8948 20.3355 30.6519 20.3355H29.0489C28.806 20.3355 28.6117 20.2935 28.4174 20.2935C28.2717 20.2514 28.126 20.1674 27.9802 20.0834C27.8831 19.9994 27.7859 19.8733 27.7373 19.7473C27.6888 19.6212 27.6402 19.4532 27.6402 19.2431V18.2767C27.6402 18.0666 27.6888 17.8986 27.7373 17.7305C27.7859 17.6045 27.8831 17.4784 27.9802 17.3944C28.0774 17.3104 28.2231 17.2683 28.4174 17.2263C28.5632 17.1843 28.806 17.1843 29.0489 17.1843H30.6034C30.9434 17.1843 31.1863 17.2263 31.3806 17.2683C31.5749 17.3524 31.7206 17.4364 31.8178 17.6045C31.9149 17.7725 31.9635 17.9826 31.9635 18.2767V19.2431ZM32.9836 17.1423H36.4326V17.7305H33.858V18.4028H35.5582C35.8496 18.4028 36.0925 18.4448 36.2868 18.4868C36.4811 18.5288 36.5783 18.6549 36.6755 18.7809C36.7726 18.907 36.8212 19.117 36.8212 19.3691C36.8212 19.6212 36.7726 19.7893 36.6755 19.9153C36.5783 20.0414 36.4326 20.1254 36.2868 20.2094C36.0925 20.2514 35.8982 20.2935 35.6068 20.2935H33.0322V17.1423H32.9836ZM33.858 18.991V19.7473H35.3639C35.5096 19.7473 35.6553 19.7473 35.7039 19.7052C35.8011 19.6632 35.8497 19.6632 35.8497 19.5792C35.8497 19.4952 35.8982 19.4532 35.8982 19.3691C35.8982 19.2851 35.8982 19.2011 35.8497 19.159C35.8011 19.117 35.8011 19.075 35.7039 19.033C35.6553 18.991 35.5096 18.991 35.3639 18.991H33.858ZM38.6671 19.159C38.6671 19.2851 38.7157 19.4111 38.7157 19.4952C38.7642 19.5792 38.8128 19.6212 38.91 19.6632C39.0071 19.7052 39.1529 19.7052 39.3472 19.7052H40.513C40.7073 19.7052 40.853 19.7052 40.9502 19.6632C41.0474 19.6212 41.0959 19.5792 41.1445 19.4952C41.1931 19.4111 41.1931 19.3271 41.1931 19.159V18.3607C41.1931 18.1927 41.1931 18.1087 41.1445 18.0246C41.0959 17.9406 41.0474 17.8986 40.9502 17.8566C40.853 17.8145 40.7073 17.8145 40.513 17.8145H39.3957C39.2014 17.8145 39.0557 17.8145 38.9586 17.8566C38.8614 17.8986 38.8128 17.9406 38.7643 18.0246C38.7157 18.1087 38.7157 18.2347 38.7157 18.4028V19.159H38.6671ZM42.116 19.2431C42.116 19.4532 42.0675 19.6212 42.0675 19.7473C42.0189 19.8733 41.9703 19.9994 41.8732 20.0834C41.776 20.1674 41.6303 20.2514 41.436 20.2935C41.2902 20.3355 41.0474 20.3355 40.8045 20.3355H39.2014C38.9586 20.3355 38.7643 20.2935 38.5699 20.2935C38.4242 20.2514 38.2785 20.1674 38.1328 20.0834C38.0356 19.9994 37.9384 19.8733 37.8899 19.7473C37.8413 19.6212 37.8413 19.4532 37.8413 19.2431V18.2767C37.8413 18.0666 37.8413 17.8986 37.8899 17.7305C37.9384 17.6045 38.0356 17.4784 38.1328 17.3944C38.2299 17.3104 38.3756 17.2683 38.5214 17.2263C38.7157 17.1843 38.91 17.1843 39.1529 17.1843H40.7559C41.0959 17.1843 41.3388 17.2263 41.5331 17.2683C41.7274 17.3524 41.8732 17.4364 41.9703 17.6045C42.0675 17.7725 42.116 17.9826 42.116 18.2767V19.2431ZM43.0876 20.3355V17.1843H45.565C45.8079 17.1843 46.0022 17.2263 46.1479 17.2263C46.2936 17.2683 46.4394 17.3524 46.5365 17.4364C46.6337 17.5204 46.6822 17.6465 46.7794 17.7725C46.828 17.8986 46.828 18.0666 46.828 18.2767C46.828 18.5708 46.7794 18.7809 46.6822 18.949C46.5851 19.117 46.4394 19.2431 46.2451 19.3271C46.0507 19.4111 45.8079 19.4532 45.5164 19.4532H43.8648V20.3775H43.0876V20.3355ZM43.962 18.7809H45.4193C45.565 18.7809 45.6621 18.7389 45.7593 18.7389C45.8564 18.6969 45.905 18.6549 45.9536 18.5708C46.0022 18.4868 46.0022 18.4028 46.0022 18.2767C46.0022 18.1087 45.9536 17.9826 45.8564 17.8986C45.7593 17.8145 45.6136 17.7725 45.4193 17.7725H43.962V18.7809ZM50.8598 17.1423H51.9285L50.2283 19.5372C50.0826 19.7473 49.9855 19.8733 49.8883 19.9573C49.7911 20.0414 49.694 20.1254 49.6454 20.1674C49.5483 20.2094 49.4511 20.2514 49.354 20.2935C49.2568 20.2935 49.1111 20.3355 48.9168 20.3355H48.5767V19.7473H48.7225C49.0625 19.7473 49.2082 19.6632 49.2082 19.5372C49.2082 19.4952 49.2082 19.4532 49.1597 19.3691L47.4595 17.1423H48.4796L49.694 18.949L50.8598 17.1423ZM52.9001 19.7052C53.0458 19.5792 53.1429 19.4111 53.2401 19.2851C53.2887 19.117 53.3372 18.949 53.3372 18.6969V17.1843H53.8716H56.1061H56.9805V19.7052H57.4177V21.0918H56.6405V20.3355H53.4344V21.0918H52.6572V19.7052H52.9001ZM56.1061 19.7052V17.8145H54.163V18.8649C54.163 19.033 54.1145 19.2011 54.1145 19.3271C54.0659 19.4532 53.9687 19.6212 53.8716 19.7473H56.1061V19.7052ZM59.1664 19.159C59.1664 19.2851 59.215 19.4111 59.215 19.4952C59.2636 19.5792 59.3122 19.6212 59.4093 19.6632C59.5065 19.7052 59.6522 19.7052 59.8465 19.7052H61.0124C61.2067 19.7052 61.3524 19.7052 61.4495 19.6632C61.5467 19.6212 61.5953 19.5792 61.6439 19.4952C61.6924 19.4111 61.6924 19.3271 61.6924 19.159V18.3607C61.6924 18.1927 61.6924 18.1087 61.6439 18.0246C61.5953 17.9406 61.5467 17.8986 61.4495 17.8566C61.3524 17.8145 61.2067 17.8145 61.0124 17.8145H59.8951C59.7008 17.8145 59.5551 17.8145 59.4579 17.8566C59.3608 17.8986 59.3122 17.9406 59.2636 18.0246C59.215 18.1087 59.215 18.2347 59.215 18.4028V19.159H59.1664ZM62.5668 19.2431C62.5668 19.4532 62.5182 19.6212 62.5182 19.7473C62.5182 19.8733 62.4211 19.9994 62.3239 20.0834C62.2268 20.1674 62.081 20.2514 61.8867 20.2935C61.741 20.3355 61.4981 20.3355 61.2552 20.3355H59.6522C59.4093 20.3355 59.215 20.2935 59.0207 20.2935C58.875 20.2514 58.7293 20.1674 58.5835 20.0834C58.4864 19.9994 58.3892 19.8733 58.3406 19.7473C58.2921 19.6212 58.2921 19.4532 58.2921 19.2431V18.2767C58.2921 18.0666 58.2921 17.8986 58.3406 17.7305C58.3892 17.6045 58.4864 17.4784 58.5835 17.3944C58.6807 17.3104 58.8264 17.2683 58.9721 17.2263C59.1664 17.1843 59.3607 17.1843 59.6036 17.1843H61.2067C61.5467 17.1843 61.7896 17.2263 61.9839 17.2683C62.1782 17.3524 62.3239 17.4364 62.4211 17.6045C62.5182 17.7725 62.5668 17.9826 62.5668 18.2767V19.2431ZM64.4613 17.7725V18.4448H66.2586C66.4044 18.4448 66.4529 18.4028 66.5501 18.3187C66.5987 18.2347 66.6472 18.1507 66.6472 18.0666C66.6472 17.9826 66.5987 17.8986 66.5501 17.8145C66.5015 17.7725 66.4044 17.7305 66.2586 17.7305H64.4613V17.7725ZM63.5869 20.3355V17.1843H66.2101C66.5015 17.1843 66.6958 17.2263 66.8901 17.2683C67.0844 17.3104 67.2302 17.3944 67.3273 17.5204C67.4245 17.6465 67.473 17.8145 67.473 17.9826C67.473 18.2347 67.4245 18.4028 67.3759 18.4868C67.3273 18.5708 67.1816 18.6549 67.0359 18.6969C67.2302 18.7389 67.3759 18.8229 67.473 18.949C67.5702 19.075 67.6188 19.2011 67.6188 19.4532C67.6188 19.6632 67.5702 19.8733 67.473 19.9994C67.3759 20.1254 67.2302 20.2514 67.0844 20.2935C66.8901 20.3355 66.6472 20.3775 66.4044 20.3775H63.5869V20.3355ZM64.4613 18.991V19.7473H66.2101C66.3558 19.7473 66.5015 19.7473 66.5501 19.7052C66.6472 19.6632 66.6958 19.6632 66.6958 19.5792C66.7444 19.5372 66.7444 19.4532 66.7444 19.3691C66.7444 19.2851 66.7444 19.2011 66.6958 19.159C66.6958 19.117 66.6472 19.075 66.5501 19.033C66.5015 18.991 66.3558 18.991 66.2101 18.991H64.4613ZM69.4161 20.3355H68.396L70.3391 17.1843H71.6506L73.5937 20.3355H72.5736L72.0878 19.5372H69.9019L69.4161 20.3355ZM70.2419 18.949H71.6992L71.0191 17.7725H70.9706L70.2419 18.949ZM74.2252 20.3355V17.1843H75.0996V18.4028H77.3341V17.1843H78.2085V20.3355H77.3341V19.033H75.0996V20.3355H74.2252ZM83.9891 20.3355V17.1843H82.5318L80.2973 19.7052H80.1516V17.1843H79.2772V20.3355H80.7831L82.969 17.8145H83.1147V20.3355H83.9891ZM85.1064 20.3355V17.1843H88.8468V17.7725H85.9808V18.4868H88.7496V19.033H85.9808V19.7473H88.8468V20.3355H85.1064ZM102.108 20.3355H100.505C100.165 20.3355 99.8737 20.2935 99.6794 20.2094C99.4851 20.1254 99.3393 19.9994 99.2908 19.8733C99.1936 19.7052 99.145 19.4952 99.145 19.2011V18.2767C99.145 17.9826 99.1936 17.7305 99.2908 17.5625C99.3879 17.3944 99.5336 17.2683 99.7279 17.2263C99.9222 17.1423 100.214 17.1003 100.602 17.1003H102.011C102.351 17.1003 102.594 17.1423 102.788 17.1843C102.983 17.2263 103.128 17.3524 103.274 17.5204C103.42 17.6885 103.468 17.8986 103.468 18.1927H102.497C102.497 18.0246 102.448 17.8986 102.351 17.8145C102.254 17.7305 102.06 17.6885 101.865 17.6885H100.748C100.554 17.6885 100.408 17.6885 100.311 17.7305C100.214 17.7725 100.165 17.8145 100.117 17.8986C100.068 17.9826 100.068 18.1087 100.068 18.2767V19.033C100.068 19.2011 100.117 19.3271 100.117 19.4111C100.165 19.4952 100.262 19.5372 100.359 19.5792C100.457 19.6212 100.602 19.6212 100.797 19.6212H101.914C102.108 19.6212 102.254 19.6212 102.303 19.5792C102.4 19.5372 102.448 19.4952 102.497 19.4532C102.545 19.4111 102.545 19.2851 102.545 19.159H103.468C103.468 19.4532 103.42 19.6632 103.371 19.8313C103.323 19.9994 103.177 20.0834 102.983 20.1674C102.74 20.2935 102.448 20.3355 102.108 20.3355ZM109.152 20.3355V17.1843H107.695L105.46 19.7052H105.314V17.1843H104.44V20.3355H105.946L108.132 17.8145H108.277V20.3355H109.152ZM113.135 20.3355H111.532C111.192 20.3355 110.949 20.2935 110.755 20.2094C110.561 20.1254 110.415 19.9994 110.318 19.8733C110.221 19.7052 110.172 19.4952 110.172 19.2011V18.2767C110.172 17.9826 110.221 17.7305 110.318 17.5625C110.415 17.3944 110.561 17.2683 110.755 17.2263C110.949 17.1423 111.241 17.1003 111.629 17.1003H113.087C113.378 17.1003 113.669 17.1423 113.864 17.1843C114.058 17.2263 114.252 17.3524 114.35 17.5204C114.447 17.6885 114.495 17.8986 114.495 18.1927H113.572C113.572 18.0246 113.524 17.8986 113.427 17.8145C113.329 17.7305 113.135 17.6885 112.941 17.6885H111.824C111.629 17.6885 111.483 17.6885 111.386 17.7305C111.289 17.7725 111.241 17.8145 111.192 17.8986C111.143 17.9826 111.143 18.1087 111.143 18.2767V19.033C111.143 19.2011 111.143 19.3271 111.192 19.4111C111.241 19.4952 111.338 19.5372 111.435 19.5792C111.532 19.6212 111.678 19.6212 111.872 19.6212H112.989C113.184 19.6212 113.329 19.6212 113.427 19.5792C113.524 19.5372 113.572 19.4952 113.621 19.4532C113.669 19.4111 113.669 19.2851 113.669 19.159H114.544C114.544 19.4532 114.495 19.6632 114.447 19.8313C114.398 19.9994 114.252 20.0834 114.058 20.1674C113.767 20.2935 113.524 20.3355 113.135 20.3355ZM115.321 17.1423H119.256V17.7725H117.701V20.2935H116.827V17.7725H115.321V17.1423ZM120.13 20.3355V17.1843H123.871V17.7725H121.005V18.4868H123.773V19.033H121.005V19.7473H123.871V20.3355H120.13ZM130.72 17.1423H129.117L127.902 19.6632H127.854L126.639 17.1423H125.036V20.2935H125.911V17.7725H126.056L127.319 20.2935H128.582L129.845 17.7725H129.991V20.2935H130.866V17.1423H130.72ZM131.789 17.1423V20.2935H134.315C134.557 20.2935 134.752 20.2935 134.897 20.2514C135.043 20.2094 135.189 20.1674 135.286 20.0834C135.383 19.9994 135.48 19.9153 135.529 19.7893C135.578 19.6632 135.626 19.4952 135.626 19.2851C135.626 19.033 135.578 18.8229 135.48 18.6969C135.383 18.5288 135.237 18.4448 135.043 18.4028C134.849 18.3607 134.606 18.3187 134.315 18.3187H132.712V17.1423H131.789ZM132.663 18.991H134.12C134.315 18.991 134.46 19.033 134.557 19.075C134.655 19.117 134.703 19.2431 134.703 19.3691C134.703 19.4952 134.655 19.6212 134.557 19.6632C134.46 19.7052 134.315 19.7473 134.12 19.7473H132.663V18.991ZM137.375 20.3355H136.5V17.1843H137.375V20.3355ZM140.338 20.3355V17.1843H141.212V18.3607H141.747L143.35 17.1843H144.661L142.475 18.6549L144.71 20.3355H143.447L141.747 18.991H141.212V20.3355H140.338ZM146.362 19.159C146.362 19.2851 146.41 19.4111 146.41 19.4952C146.459 19.5792 146.507 19.6212 146.604 19.6632C146.702 19.7052 146.847 19.7052 147.042 19.7052H148.207C148.402 19.7052 148.547 19.7052 148.645 19.6632C148.742 19.6212 148.79 19.5792 148.839 19.4952C148.888 19.4111 148.888 19.3271 148.888 19.159V18.3607C148.888 18.1927 148.839 18.1087 148.839 18.0246C148.79 17.9406 148.742 17.8986 148.645 17.8566C148.547 17.8145 148.402 17.8145 148.207 17.8145H147.09C146.896 17.8145 146.75 17.8145 146.653 17.8566C146.556 17.8986 146.507 17.9406 146.459 18.0246C146.41 18.1087 146.41 18.2347 146.41 18.4028V19.159H146.362ZM149.762 19.2431C149.762 19.4532 149.762 19.6212 149.713 19.7473C149.665 19.8733 149.568 19.9994 149.47 20.0834C149.373 20.1674 149.228 20.2514 149.082 20.2935C148.888 20.3355 148.693 20.3355 148.45 20.3355H146.847C146.604 20.3355 146.41 20.2935 146.216 20.2935C146.07 20.2514 145.924 20.1674 145.779 20.0834C145.681 19.9994 145.584 19.8733 145.536 19.7473C145.487 19.6212 145.439 19.4532 145.439 19.2431V18.2767C145.439 18.0666 145.487 17.8986 145.536 17.7305C145.584 17.6045 145.681 17.4784 145.779 17.3944C145.876 17.3104 146.021 17.2683 146.216 17.2263C146.362 17.1843 146.604 17.1843 146.847 17.1843H148.45C148.79 17.1843 149.033 17.2263 149.228 17.2683C149.422 17.3524 149.568 17.4364 149.665 17.6045C149.762 17.7725 149.81 17.9826 149.81 18.2767V19.2431H149.762ZM150.733 20.3355V17.1843H151.608V18.4028H153.842V17.1843H154.717V20.3355H153.842V19.033H151.608V20.3355H150.733ZM155.64 17.1423H159.574V17.7725H158.02V20.2935H157.146V17.7725H155.64V17.1423ZM160.4 20.3355V17.1843H162.878C163.12 17.1843 163.315 17.2263 163.461 17.2263C163.606 17.2683 163.752 17.3524 163.849 17.4364C163.946 17.5204 164.043 17.6465 164.092 17.7725C164.141 17.8986 164.189 18.0666 164.189 18.2767C164.189 18.5708 164.141 18.7809 164.043 18.949C163.946 19.117 163.801 19.2431 163.606 19.3271C163.412 19.4111 163.169 19.4532 162.878 19.4532H161.275V20.3775H160.4V20.3355ZM161.275 18.7809H162.732C162.878 18.7809 162.975 18.7389 163.072 18.7389C163.169 18.6969 163.218 18.6549 163.218 18.5708C163.266 18.4868 163.266 18.4028 163.266 18.2767C163.266 18.1087 163.218 17.9826 163.12 17.8986C163.023 17.8145 162.878 17.7725 162.683 17.7725H161.226V18.7809H161.275ZM165.889 19.159C165.889 19.2851 165.938 19.4111 165.938 19.4952C165.986 19.5792 166.035 19.6212 166.132 19.6632C166.229 19.7052 166.375 19.7052 166.569 19.7052H167.735C167.93 19.7052 168.075 19.7052 168.172 19.6632C168.27 19.6212 168.318 19.5792 168.367 19.4952C168.415 19.4111 168.415 19.3271 168.415 19.159V18.3607C168.415 18.1927 168.367 18.1087 168.367 18.0246C168.318 17.9406 168.27 17.8986 168.172 17.8566C168.075 17.8145 167.93 17.8145 167.735 17.8145H166.618C166.424 17.8145 166.278 17.8145 166.181 17.8566C166.084 17.8986 166.035 17.9406 165.987 18.0246C165.938 18.1087 165.938 18.2347 165.938 18.4028V19.159H165.889ZM169.29 19.2431C169.29 19.4532 169.29 19.6212 169.241 19.7473C169.193 19.8733 169.095 19.9994 168.998 20.0834C168.901 20.1674 168.755 20.2514 168.61 20.2935C168.415 20.3355 168.221 20.3355 167.978 20.3355H166.375C166.132 20.3355 165.938 20.2935 165.744 20.2935C165.598 20.2514 165.452 20.1674 165.306 20.0834C165.209 19.9994 165.112 19.8733 165.064 19.7473C165.015 19.6212 164.966 19.4532 164.966 19.2431V18.2767C164.966 18.0666 165.015 17.8986 165.064 17.7305C165.112 17.6045 165.209 17.4784 165.306 17.3944C165.404 17.3104 165.549 17.2683 165.744 17.2263C165.889 17.1843 166.132 17.1843 166.375 17.1843H167.978C168.318 17.1843 168.561 17.2263 168.755 17.2683C168.95 17.3524 169.095 17.4364 169.193 17.6045C169.29 17.7725 169.338 17.9826 169.338 18.2767V19.2431H169.29ZM174.439 17.1423V20.2935H173.564V17.7725H171.524V19.159C171.524 19.9153 171.184 20.2935 170.504 20.2935H170.116V19.6632C170.261 19.6632 170.358 19.6632 170.456 19.6212C170.553 19.5792 170.601 19.5372 170.601 19.4532C170.65 19.3691 170.65 19.2431 170.65 19.075V17.1423H171.33H173.564H174.439ZM178.714 17.7725V18.7389H176.916C176.722 18.7389 176.576 18.6969 176.528 18.6128C176.43 18.5288 176.382 18.4028 176.382 18.2347C176.382 18.0666 176.43 17.9406 176.479 17.8566C176.576 17.7725 176.673 17.7305 176.868 17.7305H178.714V17.7725ZM179.588 17.1423H176.819C176.528 17.1423 176.333 17.1843 176.139 17.2263C175.945 17.3104 175.799 17.3944 175.702 17.5625C175.605 17.7305 175.556 17.9406 175.556 18.2347C175.556 18.4028 175.605 18.5288 175.653 18.6549C175.75 18.7809 175.848 18.907 175.945 18.991C176.09 19.075 176.188 19.117 176.333 19.159L175.265 20.2514H176.43L177.305 19.2431H178.762V20.2514H179.637V17.1423H179.588ZM95.6475 20.0414C95.5989 20.0834 95.5018 20.1674 95.356 20.2514C95.2103 20.3355 94.9674 20.3775 94.676 20.3775H92.9272C92.5386 20.3775 92.2471 20.2935 92.0043 20.0834C91.7614 19.8733 91.6642 19.6212 91.6642 19.2431C91.6642 19.075 91.7128 18.907 91.7614 18.7809C91.8585 18.6549 91.9557 18.5708 92.0528 18.4868C92.15 18.4448 92.2471 18.4028 92.3443 18.3607C92.4415 18.3187 92.49 18.3187 92.49 18.3187C92.49 18.3187 92.49 18.3187 92.4414 18.2767C92.3929 18.2347 92.3443 18.1927 92.2957 18.1507C92.2471 18.0666 92.2471 17.9826 92.2471 17.8986C92.2471 17.6885 92.2957 17.5625 92.3929 17.4364C92.49 17.3104 92.6358 17.2683 92.7815 17.2263C92.9272 17.1843 93.1215 17.1843 93.3644 17.1843H94.6274C94.9674 17.1843 95.2589 17.2263 95.4046 17.3524C95.5989 17.4784 95.7447 17.6045 95.7447 17.7305C95.7932 17.8566 95.8418 17.9826 95.8418 18.0666H94.9674C94.9674 17.9826 94.9189 17.9406 94.8217 17.8566C94.7245 17.8145 94.6274 17.7725 94.4331 17.7725H93.5101C93.3644 17.7725 93.2673 17.7725 93.1701 17.8145C93.1215 17.8566 93.073 17.8986 93.073 17.9826C93.073 18.0666 93.1215 18.1087 93.1701 18.1927C93.2673 18.2347 93.3158 18.2767 93.3644 18.3187L95.1617 19.2011C95.1617 19.2011 95.2103 19.159 95.2103 19.075C95.2103 18.991 95.2589 18.8229 95.2589 18.6128H96.1333C96.1333 18.9069 96.0847 19.117 96.0361 19.2851C95.9875 19.4532 95.939 19.5372 95.8904 19.5792L96.4733 19.8733L96.0847 20.3775L95.6475 20.0414ZM93.073 18.7809C92.9758 18.7809 92.8786 18.8229 92.7329 18.8649C92.5872 18.907 92.5386 19.033 92.5386 19.2431C92.5386 19.3691 92.5872 19.4952 92.6843 19.5792C92.7815 19.6632 92.9758 19.7052 93.2187 19.7052H94.093C94.3359 19.7052 94.4817 19.7052 94.5788 19.6632C94.676 19.6212 94.7246 19.6212 94.7246 19.6212L93.073 18.7809Z" fill="black"/>
<path fill-rule="evenodd" clip-rule="evenodd" d="M2.42883 0H22.1024C23.4625 0 24.5798 0.966358 24.5798 2.14279V19.1591C24.5798 20.3355 23.4625 21.3019 22.1024 21.3019H2.42883C1.06869 21.3019 0 20.3355 0 19.1591V2.14279C0 0.966358 1.11726 0 2.42883 0Z" fill="#CE3333" fill-opacity="0.9686"/>
<path fill-rule="evenodd" clip-rule="evenodd" d="M9.47242 11.008C9.47242 11.008 12.1927 10.924 12.1927 13.7391C12.1927 16.5541 12.1927 19.7893 12.1927 19.7893C12.047 20.8817 10.5411 20.8397 10.4925 19.7053C10.4439 18.0246 10.4925 14.4113 10.4925 14.4113C10.4925 14.4113 10.3954 12.5206 8.50088 12.4786C6.55782 12.4786 2.4288 12.4366 2.4288 12.4786C2.4288 12.4786 1.40869 12.5626 1.40869 11.7643C1.45727 11.2181 1.74873 11.008 3.01172 11.008C5.14909 11.008 8.64661 11.008 9.47242 11.008Z" fill="#FCFAFA"/>
<path fill-rule="evenodd" clip-rule="evenodd" d="M2.33156 13.361L7.38354 13.403C7.38354 13.403 9.27802 13.487 9.27802 15.7559C9.27802 16.176 9.22945 18.0247 9.27802 19.4112C9.3266 20.8818 7.52926 20.8818 7.52926 19.3692C7.57784 17.6466 7.52926 16.176 7.52926 16.176C7.52926 16.176 7.48069 14.8736 5.82908 14.8315C4.17748 14.8315 3.01164 14.8736 2.18583 14.8315C1.74864 14.7895 1.26288 14.4954 1.26288 14.1173C1.26288 13.8232 1.36003 13.487 2.33156 13.361Z" fill="#FCFAFA"/>
<path fill-rule="evenodd" clip-rule="evenodd" d="M5.1976 15.8399C5.1976 15.8399 6.55775 15.924 6.55775 17.8567C6.55775 19.7894 6.55775 19.7894 6.55775 19.9154C6.50917 20.6717 4.95472 20.7978 4.85756 19.7894C4.80899 18.781 4.85756 18.2768 4.85756 18.2768C4.85756 18.2768 5.00329 17.2264 3.35169 17.2264C2.81734 17.2264 1.50577 17.3945 1.36004 16.6382C1.21431 16.092 1.70008 15.7979 2.38015 15.7559C3.40026 15.7559 4.76041 15.8399 5.1976 15.8399Z" fill="#FCFAFA"/>
<path fill-rule="evenodd" clip-rule="evenodd" d="M15.2045 10.9241C15.2045 10.9241 12.5328 11.0081 12.4842 8.19311C12.4842 5.37806 12.4842 2.14286 12.4842 2.14286C12.6299 1.05046 14.1358 1.09248 14.1844 2.2269C14.233 3.90752 14.1844 7.52086 14.1844 7.52086C14.1844 7.52086 14.2815 9.41156 16.176 9.45357C18.1191 9.45357 22.2481 9.49559 22.2481 9.45357C22.2481 9.45357 23.2682 9.36954 23.2682 10.1678C23.2196 10.714 22.9282 10.9241 21.6652 10.9241C19.5278 10.9241 16.0303 10.9241 15.2045 10.9241Z" fill="#FCFAFA"/>
<path fill-rule="evenodd" clip-rule="evenodd" d="M22.3453 8.5712L17.2933 8.52919C17.2933 8.52919 15.3988 8.44516 15.3988 6.17632C15.3988 5.75616 15.4474 3.90747 15.3988 2.52096C15.3503 1.05042 17.1962 1.05042 17.1476 2.56298C17.099 4.28561 17.1476 5.75616 17.1476 5.75616C17.1476 5.75616 17.1962 7.05864 18.8478 7.05864C20.4994 7.05864 21.6652 7.01663 22.491 7.05864C22.9282 7.05864 23.414 7.39477 23.414 7.77291C23.414 8.06702 23.3168 8.44516 22.3453 8.5712Z" fill="#FCFAFA"/>
<path fill-rule="evenodd" clip-rule="evenodd" d="M19.4792 6.09223C19.4792 6.09223 18.1677 6.0082 18.1677 4.07548C18.1677 2.14277 18.1677 2.14277 18.1677 2.01672C18.2162 1.26044 19.7707 1.13439 19.8678 2.14277C19.9164 3.15114 19.8678 3.65533 19.8678 3.65533C19.8678 3.65533 19.7221 4.70572 21.3737 4.70572C21.9081 4.70572 23.2196 4.53766 23.3654 5.29394C23.5111 5.84014 23.0253 6.13425 22.3453 6.17626C21.2766 6.17626 19.9164 6.09223 19.4792 6.09223Z" fill="#FCFAFA"/>
<path d="M182.745 3.61328V1.09235H184.008C184.3 1.09235 184.543 1.13436 184.688 1.13436C184.834 1.17638 184.931 1.26041 185.028 1.38646C185.126 1.5125 185.174 1.63855 185.174 1.7646C185.174 1.97467 185.126 2.10072 184.98 2.22677C184.834 2.35281 184.64 2.43684 184.397 2.43684C184.543 2.52088 184.64 2.56289 184.737 2.64692C184.834 2.73095 184.931 2.857 185.077 3.06708L185.417 3.57127H184.737L184.3 3.02506C184.154 2.81498 184.057 2.68894 184.008 2.64692C183.96 2.60491 183.863 2.56289 183.814 2.52088C183.765 2.47886 183.668 2.47886 183.523 2.47886H183.425V3.52925H182.745V3.61328ZM183.328 2.18475H183.765C184.057 2.18475 184.203 2.18475 184.3 2.14274C184.348 2.14274 184.445 2.10072 184.445 2.01669C184.494 1.97467 184.494 1.89064 184.494 1.84863C184.494 1.7646 184.445 1.68056 184.397 1.63855C184.348 1.59653 184.251 1.55452 184.154 1.55452C184.105 1.55452 183.96 1.55452 183.717 1.55452H183.28V2.18475H183.328Z" fill="black"/>
</svg>
